<svg xmlns="http://www.w3.org/2000/svg" width="202" height="32" viewBox="0 0 202 32" fill="none"><rect width="32" height="32" fill="#B18D4D"></rect><mask id="mask0_1_73" style="mask-type:alpha" maskUnits="userSpaceOnUse" x="0" y="0" width="32" height="32"><rect width="32" height="32" fill="#B18D4D"></rect></mask><g mask="url(#mask0_1_73)"><g clip-path="url(#clip0_1_73)"><path d="M19.5294 21.3479C19.1134 21.0501 17.5248 20.2533 14.6681 22.5391C13.9565 23.1838 13.3768 23.7515 12.8673 24.2522L12.8456 24.2718H12.7086C12.1205 23.6648 11.6394 22.2871 11.1299 20.8358C10.4049 18.7578 9.65482 16.6111 8.39189 15.901L8.37017 15.8912C6.69963 15.276 3.02443 15.1353 2.22591 16.0728C1.64289 16.7518 2.29774 20.9045 2.95259 24.2784C2.94577 24.4428 2.9581 24.6075 2.98935 24.7692L2.99937 24.8167C3.0142 24.8863 3.0326 24.9551 3.0545 25.0228C3.0545 25.0392 3.06619 25.0556 3.07287 25.0719C3.09679 25.1418 3.12524 25.2101 3.15807 25.2765C3.17144 25.3026 3.18647 25.3272 3.20151 25.3517C3.55399 26.0062 4.1888 26.5183 5.0508 26.8521L3.11631 33.7962C3.10982 33.8184 3.10871 33.8418 3.11306 33.8645C3.11741 33.8872 3.1271 33.9086 3.14137 33.9271C3.15589 33.9452 3.17439 33.9599 3.19549 33.9701C3.2166 33.9803 3.23978 33.9857 3.26332 33.986H3.68596C3.71635 33.9857 3.746 33.9768 3.77124 33.9602C3.79648 33.9436 3.8162 33.9201 3.82796 33.8927L6.59939 27.2595C7.28766 27.3839 7.97425 27.4542 8.51384 27.4984H8.55393L8.73602 27.5115H8.84461H8.97324H9.09853H9.22215H9.36749H9.42763L8.98994 33.7896C8.98882 33.8102 8.99194 33.8308 8.99911 33.8502C9.00629 33.8696 9.01737 33.8874 9.03171 33.9025C9.04607 33.9175 9.06341 33.9294 9.08266 33.9376C9.10191 33.9457 9.12266 33.95 9.14363 33.95H9.56628C9.60132 33.9499 9.63526 33.938 9.66235 33.9162C9.68944 33.8944 9.70803 33.8642 9.71496 33.8305L11.0297 27.5377C11.1516 27.5377 11.2752 27.5377 11.3955 27.5377C11.8833 27.5377 12.3527 27.5181 12.8071 27.4853C13.1045 27.4755 13.3083 27.4624 13.4286 27.4461C13.4801 27.4427 13.531 27.4339 13.5806 27.4199C13.8796 27.3839 14.187 27.3381 14.4961 27.2808L17.2424 33.8502C17.2537 33.8776 17.2731 33.9011 17.2981 33.9177C17.3231 33.9343 17.3526 33.9433 17.3828 33.9434H17.8054C17.829 33.9433 17.8522 33.9379 17.8733 33.9277C17.8944 33.9175 17.9129 33.9028 17.9274 33.8845C17.941 33.8658 17.9504 33.8444 17.955 33.8219C17.9596 33.7993 17.9593 33.7761 17.9541 33.7536L16.0447 26.9437C16.7553 26.73 17.4356 26.4293 18.0694 26.0487C18.9263 25.5333 19.6196 24.874 19.9888 24.0575C20.0167 23.9975 20.0434 23.937 20.069 23.8759C20.4766 22.8745 20.2645 21.8764 19.5294 21.3479ZM17.4863 33.6865L14.8018 27.2628C14.8987 27.2432 14.9972 27.2154 15.0941 27.1925C15.2344 27.1614 15.3731 27.1303 15.5067 27.0943L15.7506 27.0288L17.6066 33.6865H17.4863ZM9.30066 33.6865L9.72665 27.5557H9.93881H9.98559C10.1677 27.5557 10.3581 27.5557 10.5586 27.5557H10.577H10.7123L9.43431 33.6734L9.30066 33.6865ZM3.45376 33.6865L5.34147 26.9519C5.65434 27.0525 5.97282 27.1356 6.29535 27.2006L3.58406 33.6865H3.45376ZM5.01405 15.6883C6.15503 15.6883 7.41295 15.8519 8.24154 16.1579C9.39756 16.8124 10.1593 18.9984 10.8309 20.9225C11.3036 22.2724 11.7514 23.5552 12.306 24.2718H7.81722C7.21415 23.7597 6.39726 23.0758 5.51855 22.7698C4.81024 22.5244 4.09358 22.5947 3.5991 22.9596C3.39438 23.1135 3.23192 23.3147 3.12633 23.5454C2.35788 19.4418 2.10062 16.6733 2.45811 16.2544C2.79389 15.8716 3.84801 15.6932 5.02407 15.6932L5.01405 15.6883ZM12.752 24.5762H15.3647C15.5046 24.5767 15.6424 24.6098 15.7667 24.6726C15.891 24.7355 15.9983 24.8264 16.0797 24.9378C16.1549 25.0369 16.2045 25.1523 16.2243 25.2743C16.2441 25.3962 16.2334 25.521 16.1933 25.6381C16.1191 25.8524 16.0009 26.0495 15.8459 26.2173C15.8058 26.2582 15.7657 26.3007 15.7206 26.34C15.6802 26.3781 15.6378 26.4142 15.5936 26.448C15.497 26.5225 15.3948 26.5898 15.2879 26.6492C15.0888 26.7594 14.8789 26.8499 14.6614 26.9192L14.5161 26.9667C14.4677 26.9814 14.4175 26.9928 14.3674 27.0059C14.2254 27.0436 14.0751 27.0763 13.918 27.1057C13.7928 27.1286 13.6641 27.1499 13.5305 27.1663H13.5205H13.4687C13.0755 27.124 12.6851 27.0601 12.2993 26.9748L12.2325 26.9585L12.1155 26.9274L12.0103 26.8996C11.5829 26.7921 11.1664 26.647 10.7657 26.466L10.607 26.3907L10.5435 26.3613L10.4483 26.3089C10.3848 26.2762 10.3247 26.2435 10.2662 26.2091L10.2061 26.1747C10.151 26.142 10.0958 26.1093 10.039 26.0749C9.45052 25.6747 8.89222 25.2334 8.3685 24.7545L8.1814 24.5762H12.752ZM17.1906 26.1895C16.7943 26.3749 16.3851 26.5329 15.9661 26.6623L15.8191 26.7049L15.7022 26.7376C15.7373 26.713 15.774 26.6869 15.8074 26.6607C15.8408 26.6345 15.8943 26.5887 15.9344 26.5511C16.1835 26.3274 16.3713 26.0461 16.4807 25.733C16.5362 25.5706 16.551 25.3976 16.524 25.2285C16.4969 25.0593 16.4288 24.899 16.3253 24.7611C16.2159 24.6102 16.0714 24.4871 15.9038 24.4017C15.7362 24.3164 15.5503 24.2713 15.3614 24.2702H13.2732C13.7343 23.8186 14.2538 23.3147 14.8686 22.7583C17.0035 21.0551 18.5822 21.0354 19.349 21.5836C19.9671 22.0286 20.1392 22.8811 19.785 23.7597C19.4308 24.6383 18.5889 25.5284 17.1906 26.1895ZM6.41229 26.9192C6.0765 26.8541 5.7451 26.7689 5.41999 26.664C5.38324 26.6509 5.34314 26.6411 5.30806 26.628L5.27465 26.6149L5.13098 26.5609C4.53126 26.3236 3.80791 25.8982 3.43204 25.1439C3.40364 25.085 3.37858 25.0228 3.3552 24.959L3.34517 24.9312C3.32305 24.8647 3.30519 24.797 3.29172 24.7283C3.25726 24.567 3.24546 24.4019 3.25663 24.2375C3.26277 24.0379 3.31299 23.8419 3.40383 23.6631C3.49467 23.4843 3.62398 23.3269 3.78286 23.2018C4.04738 23.0177 4.36559 22.9224 4.68996 22.9301C4.93757 22.9316 5.18319 22.9737 5.41665 23.0545C6.25192 23.349 7.06548 24.0362 7.65518 24.5271C7.82223 24.6694 7.98929 24.815 8.15634 24.9623C8.68813 25.4506 9.25477 25.9011 9.85194 26.3105C9.93881 26.3662 10.029 26.4202 10.1226 26.4742L10.2896 26.5609L10.4567 26.6427C11.0023 26.9082 11.5782 27.1092 12.1723 27.2415C11.875 27.2497 11.5425 27.2563 11.2001 27.2595H10.5987C10.2128 27.2595 9.82522 27.2595 9.46104 27.2415C9.12693 27.2317 8.81454 27.2154 8.54057 27.1925H8.45871L8.17472 27.1663C7.73202 27.1237 7.22585 27.0632 6.718 26.9748L6.56431 26.9487L6.41229 26.9192Z" fill="#232323" stroke="black" stroke-width="0.5"></path><path d="M29.9953 33.7962L28.5921 28.7648H29.409C29.4494 28.7648 29.4883 28.7492 29.5171 28.7213C29.5458 28.6935 29.5622 28.6556 29.5627 28.6159V25.0998C29.5627 25.0598 29.5465 25.0215 29.5176 24.9933C29.4888 24.9651 29.4497 24.9492 29.409 24.9492H21.2233C21.2032 24.9492 21.1833 24.9531 21.1647 24.9607C21.1462 24.9683 21.1293 24.9794 21.1152 24.9934C21.1011 25.0074 21.0899 25.024 21.0824 25.0423C21.0748 25.0605 21.0711 25.0801 21.0713 25.0998V28.6094C21.0713 28.6489 21.0873 28.6868 21.1158 28.7147C21.1443 28.7426 21.183 28.7583 21.2233 28.7583H22.0469L20.6436 33.7962C20.6371 33.8185 20.6361 33.842 20.6408 33.8648C20.6454 33.8876 20.6556 33.9089 20.6703 33.9271C20.6845 33.9452 20.7027 33.9599 20.7236 33.9701C20.7444 33.9803 20.7673 33.9857 20.7906 33.986H21.2116C21.242 33.9859 21.2718 33.9771 21.2971 33.9605C21.3223 33.9439 21.342 33.9203 21.3536 33.8927L23.4969 28.7648H27.1387L29.2837 33.8992C29.2954 33.9267 29.3152 33.9502 29.3404 33.9667C29.3656 33.9833 29.3953 33.9923 29.4257 33.9925H29.8483C29.8717 33.9916 29.8947 33.9859 29.9157 33.9758C29.9367 33.9656 29.9553 33.9512 29.9703 33.9336C29.9856 33.9144 29.9959 33.8919 30.0003 33.8679C30.0046 33.844 30.0029 33.8193 29.9953 33.7962ZM29.5276 33.6865L27.4695 28.7648H28.2747L29.6479 33.6931L29.5276 33.6865ZM20.9877 33.6865L22.3609 28.7648H23.1678L21.108 33.6931L20.9877 33.6865ZM23.395 28.4507H21.3787V25.2486H29.2569V28.4589H23.395V28.4507Z" fill="#232323" stroke="black" stroke-width="0.5"></path><path d="M25.3178 25.5137C25.2239 25.5134 25.132 25.5404 25.0538 25.5912C24.9756 25.6421 24.9145 25.7145 24.8783 25.7994C24.8422 25.8843 24.8325 25.9778 24.8506 26.068C24.8688 26.1583 24.9138 26.2412 24.9801 26.3064C25.0464 26.3715 25.1309 26.416 25.223 26.434C25.3151 26.4521 25.4106 26.443 25.4973 26.4078C25.5841 26.3727 25.6583 26.3132 25.7105 26.2367C25.7627 26.1603 25.7906 26.0704 25.7906 25.9784C25.7906 25.8554 25.7409 25.7375 25.6522 25.6504C25.5636 25.5633 25.4434 25.5141 25.3178 25.5137ZM25.3178 26.142C25.2848 26.142 25.2525 26.1324 25.225 26.1144C25.1976 26.0965 25.1761 26.0709 25.1635 26.041C25.1509 26.0111 25.1476 25.9782 25.154 25.9465C25.1604 25.9147 25.1764 25.8856 25.1997 25.8627C25.2231 25.8398 25.2528 25.8242 25.2852 25.8179C25.3177 25.8116 25.3512 25.8148 25.3818 25.8272C25.4123 25.8396 25.4384 25.8606 25.4567 25.8875C25.4751 25.9144 25.4849 25.946 25.4849 25.9784C25.4856 26.0003 25.4817 26.0221 25.4736 26.0425C25.4656 26.0629 25.4534 26.0816 25.4378 26.0973C25.4222 26.113 25.4036 26.1255 25.3829 26.134C25.3623 26.1425 25.3402 26.1469 25.3178 26.1469V26.142Z" fill="#232323" stroke="black" stroke-width="0.5"></path><path d="M16.778 6.93954C16.778 6.91991 16.778 6.90191 16.778 6.88228C16.7776 6.70513 16.7147 6.53356 16.5999 6.39667C16.4851 6.25978 16.3255 6.16601 16.1482 6.13126V-0.865142C16.1442 -0.902149 16.1264 -0.936411 16.0982 -0.961315C16.07 -0.986218 16.0333 -1 15.9953 -1C15.9573 -1 15.9207 -0.986218 15.8925 -0.961315C15.8642 -0.936411 15.8464 -0.902149 15.8425 -0.865142V6.13126C15.6651 6.16601 15.5055 6.25978 15.3907 6.39667C15.2759 6.53356 15.213 6.70513 15.2127 6.88228C15.2127 6.90191 15.2127 6.91991 15.2127 6.93954C14.1018 6.98372 12.1957 7.14243 12.1957 7.69547L12.2475 10.0778C12.2475 10.3183 12.61 10.5441 13.1161 10.7323L13.1395 12.3226C13.1395 12.3226 13.1395 12.3341 13.1395 12.3406C13.1395 12.3472 13.1395 12.3521 13.1395 12.3603C13.142 12.3701 13.1459 12.3795 13.1512 12.3881C13.2431 12.5943 13.6641 12.6613 14.1669 12.6613C14.81 12.6458 15.451 12.5834 16.0847 12.4748C16.7329 12.3741 17.3715 12.2215 17.9941 12.0183C18.2613 11.9446 18.5103 11.8182 18.7258 11.6469C19.227 11.6224 19.6112 11.5324 19.6998 11.3197C19.709 11.3052 19.7153 11.2891 19.7181 11.2722C19.7206 11.2526 19.7206 11.2329 19.7181 11.2133L19.7683 7.67583C19.795 7.1408 17.8906 6.98372 16.778 6.93954ZM13.9765 12.3717C13.8067 12.374 13.6376 12.3502 13.4753 12.3014C13.6128 12.2046 13.7643 12.1285 13.9247 12.0756C14.5798 11.8421 15.2569 11.6727 15.9461 11.57C16.0997 11.5455 16.2451 11.5225 16.3854 11.5045C16.6059 11.4735 16.8114 11.4506 17.0002 11.4326C17.3409 11.3983 17.6835 11.3857 18.0259 11.3949C18.1957 11.3927 18.3647 11.4164 18.527 11.4653C18.5021 11.4862 18.4753 11.5048 18.4469 11.5209C18.3516 11.5757 18.2522 11.6233 18.1495 11.6633L18.081 11.6894C17.4263 11.9242 16.7491 12.0936 16.0596 12.195C15.373 12.3214 14.6751 12.3806 13.9765 12.3717ZM13.4319 10.6963V10.5326V9.96488H13.8228H14.0065H14.0817L14.2922 9.97633H14.3624L14.5963 9.99433H14.6647L14.9304 10.0221H14.9888C15.0891 10.0336 15.1926 10.0451 15.2979 10.0598H15.3346C15.5735 10.0909 15.8258 10.1285 16.0914 10.171C16.357 10.2136 16.6042 10.261 16.8381 10.3085H16.8715L17.1739 10.3723L17.3293 10.4083L17.483 10.4443C17.9156 10.549 18.2765 10.6554 18.5688 10.7568L18.5605 11.1282C18.0593 10.9761 17.0319 11.0759 16.3887 11.1626C16.1749 11.1904 16.0012 11.2182 15.906 11.2346H15.8909C15.8007 11.2493 15.6537 11.2755 15.4716 11.3115C14.8819 11.426 13.9397 11.6387 13.467 11.9234L13.4519 10.8092L13.4319 10.6963ZM18.8628 10.9106C19.1969 11.0464 19.3941 11.1642 19.4358 11.2378C19.3757 11.2918 19.1752 11.3377 18.8528 11.3589L18.8628 10.9106ZM12.5682 10.1023C12.5718 10.0977 12.5764 10.0938 12.5816 10.0909C12.5877 10.0858 12.5944 10.0814 12.6016 10.0778L12.635 10.0631L12.6668 10.0516L12.7152 10.0385L12.757 10.0287L12.8221 10.0156H12.8722L12.9558 10.0058H13.0126L13.1145 9.99761V10.4361C12.7971 10.2888 12.61 10.1743 12.5682 10.1023ZM19.3623 10.819L19.2638 10.765L19.2186 10.7437L19.1502 10.711L19.095 10.6864L19.0265 10.6554L18.9697 10.6325L18.8929 10.6014H18.8695L18.8378 10.5883L18.7175 10.5441L18.6523 10.5212L18.5755 10.495L18.5037 10.4721L18.4201 10.4394L18.345 10.4165L18.2681 10.3936L18.1946 10.3723L18.0894 10.3412L17.9724 10.3101L17.9056 10.2921L17.8187 10.2758L17.7536 10.2594L17.6667 10.2365L17.6066 10.2218L17.5164 10.2005L17.2875 10.1465H17.2507L17.1539 10.1121H17.1121L17.0202 10.0925H16.9901C16.8398 10.0598 16.7028 10.032 16.5842 10.0091C16.3353 9.96161 16.1666 9.93216 16.1348 9.92725H16.1215L15.9778 9.90434C15.1814 9.77837 14.3771 9.70621 13.5705 9.68836H13.4219C13.3701 9.68836 13.3183 9.68836 13.2682 9.68836C13.2181 9.68836 13.1663 9.68836 13.1161 9.69818C12.9272 9.7083 12.7402 9.74184 12.5599 9.79799V9.78817L12.5131 7.71838C12.5916 7.56457 13.5789 7.30278 15.3112 7.24551H15.4783H15.6754H16.0095H16.3336H16.5324H16.6995C18.4318 7.30278 19.4208 7.56294 19.496 7.70365L19.4509 10.8812L19.3991 10.8501L19.3623 10.819ZM15.5318 6.88228C15.5347 6.75908 15.586 6.64174 15.675 6.5546C15.7639 6.46747 15.8838 6.41723 16.0095 6.41432C16.0614 6.41518 16.1128 6.42458 16.1616 6.44214C16.2675 6.47063 16.359 6.53657 16.4182 6.62723C16.4774 6.71788 16.5003 6.82682 16.4823 6.933C16.352 6.933 16.2434 6.933 16.1616 6.933H15.8475C15.7673 6.933 15.6587 6.933 15.5284 6.933C15.5286 6.91604 15.5297 6.89911 15.5318 6.88228Z" fill="#232323" stroke="black" stroke-width="0.5"></path></g></g><path d="M44.38 25V8.8H46.6V25H44.38ZM49.0409 25V13.44H51.1809V14.58C51.5676 14.22 51.9943 13.9133 52.4609 13.66C52.9276 13.4067 53.4409 13.28 54.0009 13.28C54.4676 13.28 54.8209 13.4 55.0609 13.64C55.3143 13.88 55.4876 14.18 55.5809 14.54C55.6876 14.9 55.7409 15.2667 55.7409 15.64V25H53.6009V16.26C53.6009 15.8467 53.5409 15.5267 53.4209 15.3C53.3009 15.0733 53.0543 14.96 52.6809 14.96C52.4409 14.96 52.1876 15.0333 51.9209 15.18C51.6676 15.3133 51.4209 15.48 51.1809 15.68V25H49.0409ZM60.91 25.16C60.31 25.16 59.8233 25.0467 59.45 24.82C59.09 24.5933 58.8233 24.2733 58.65 23.86C58.49 23.4467 58.41 22.96 58.41 22.4V14.86H57.19V13.44H58.41V10.06H60.55V13.44H62.41V14.86H60.55V22.26C60.55 22.7133 60.6233 23.04 60.77 23.24C60.9167 23.4267 61.1967 23.52 61.61 23.52C61.7167 23.52 61.8367 23.5133 61.97 23.5C62.1167 23.4867 62.2567 23.4733 62.39 23.46V25.04C62.1233 25.08 61.8767 25.1067 61.65 25.12C61.4233 25.1467 61.1767 25.16 60.91 25.16ZM67.1823 25.16C66.2757 25.16 65.5757 24.9867 65.0823 24.64C64.589 24.28 64.2423 23.76 64.0423 23.08C63.8557 22.3867 63.7623 21.54 63.7623 20.54V17.9C63.7623 16.8733 63.8623 16.02 64.0623 15.34C64.2623 14.66 64.609 14.1467 65.1023 13.8C65.609 13.4533 66.3023 13.28 67.1823 13.28C68.1557 13.28 68.869 13.48 69.3223 13.88C69.789 14.28 70.0957 14.86 70.2423 15.62C70.389 16.3667 70.4623 17.2667 70.4623 18.32V19.26H65.9023V21.58C65.9023 22.0467 65.9423 22.4267 66.0223 22.72C66.1157 23.0133 66.2557 23.2333 66.4423 23.38C66.6423 23.5133 66.8957 23.58 67.2023 23.58C67.5223 23.58 67.7623 23.5067 67.9223 23.36C68.0957 23.2 68.209 22.98 68.2623 22.7C68.329 22.4067 68.3623 22.0667 68.3623 21.68V20.98H70.4423V21.42C70.4423 22.58 70.1957 23.4933 69.7023 24.16C69.209 24.8267 68.369 25.16 67.1823 25.16ZM65.9023 18.1H68.3623V17.06C68.3623 16.58 68.3357 16.18 68.2823 15.86C68.229 15.5267 68.1157 15.28 67.9423 15.12C67.7823 14.9467 67.5223 14.86 67.1623 14.86C66.8157 14.86 66.549 14.94 66.3623 15.1C66.189 15.26 66.069 15.5333 66.0023 15.92C65.9357 16.2933 65.9023 16.8133 65.9023 17.48V18.1ZM72.4603 25V13.44H74.6003V15.08C75.027 14.3733 75.4536 13.9 75.8803 13.66C76.307 13.42 76.7336 13.3 77.1603 13.3C77.2136 13.3 77.2603 13.3 77.3003 13.3C77.3536 13.3 77.4203 13.3067 77.5003 13.32V15.68C77.3403 15.6133 77.1536 15.56 76.9403 15.52C76.7403 15.4667 76.5336 15.44 76.3203 15.44C75.987 15.44 75.6803 15.52 75.4003 15.68C75.1336 15.8267 74.867 16.12 74.6003 16.56V25H72.4603ZM78.9661 25V13.44H81.1061V25H78.9661ZM78.9661 11.72V9.48H81.1061V11.72H78.9661ZM86.5964 25.16C85.6897 25.16 84.9897 24.9867 84.4964 24.64C84.0031 24.28 83.6564 23.76 83.4564 23.08C83.2697 22.3867 83.1764 21.54 83.1764 20.54V17.9C83.1764 16.8733 83.2764 16.02 83.4764 15.34C83.6764 14.66 84.0231 14.1467 84.5164 13.8C85.0231 13.4533 85.7164 13.28 86.5964 13.28C87.5697 13.28 88.2831 13.48 88.7364 13.88C89.2031 14.28 89.5097 14.86 89.6564 15.62C89.8031 16.3667 89.8764 17.2667 89.8764 18.32V19.26H85.3164V21.58C85.3164 22.0467 85.3564 22.4267 85.4364 22.72C85.5297 23.0133 85.6697 23.2333 85.8564 23.38C86.0564 23.5133 86.3097 23.58 86.6164 23.58C86.9364 23.58 87.1764 23.5067 87.3364 23.36C87.5097 23.2 87.6231 22.98 87.6764 22.7C87.7431 22.4067 87.7764 22.0667 87.7764 21.68V20.98H89.8564V21.42C89.8564 22.58 89.6097 23.4933 89.1164 24.16C88.6231 24.8267 87.7831 25.16 86.5964 25.16ZM85.3164 18.1H87.7764V17.06C87.7764 16.58 87.7497 16.18 87.6964 15.86C87.6431 15.5267 87.5297 15.28 87.3564 15.12C87.1964 14.9467 86.9364 14.86 86.5764 14.86C86.2297 14.86 85.9631 14.94 85.7764 15.1C85.6031 15.26 85.4831 15.5333 85.4164 15.92C85.3497 16.2933 85.3164 16.8133 85.3164 17.48V18.1ZM93.4744 25.16C93.021 25.16 92.6677 25.04 92.4144 24.8C92.161 24.56 91.981 24.26 91.8744 23.9C91.781 23.54 91.7344 23.1733 91.7344 22.8V13.44H93.8744V22.16C93.8744 22.5733 93.9344 22.9 94.0544 23.14C94.1744 23.3667 94.421 23.48 94.7944 23.48C95.0344 23.48 95.281 23.4133 95.5344 23.28C95.801 23.1333 96.0544 22.96 96.2944 22.76V13.44H98.4344V25H96.2944V23.86C95.921 24.22 95.4944 24.5267 95.0144 24.78C94.5477 25.0333 94.0344 25.16 93.4744 25.16ZM100.683 25V13.44H102.823V15.08C103.25 14.3733 103.676 13.9 104.103 13.66C104.53 13.42 104.956 13.3 105.383 13.3C105.436 13.3 105.483 13.3 105.523 13.3C105.576 13.3 105.643 13.3067 105.723 13.32V15.68C105.563 15.6133 105.376 15.56 105.163 15.52C104.963 15.4667 104.756 15.44 104.543 15.44C104.21 15.44 103.903 15.52 103.623 15.68C103.356 15.8267 103.09 16.12 102.823 16.56V25H100.683ZM109.129 25.16C108.675 25.16 108.275 25.0333 107.929 24.78C107.582 24.5133 107.309 24.18 107.109 23.78C106.909 23.3667 106.809 22.9333 106.809 22.48C106.809 21.76 106.929 21.1533 107.169 20.66C107.409 20.1667 107.735 19.7533 108.149 19.42C108.575 19.0733 109.062 18.7733 109.609 18.52C110.169 18.2667 110.755 18.02 111.369 17.78V16.96C111.369 16.4933 111.342 16.1067 111.289 15.8C111.235 15.4933 111.122 15.2667 110.949 15.12C110.789 14.96 110.542 14.88 110.209 14.88C109.915 14.88 109.675 14.9467 109.489 15.08C109.315 15.2133 109.189 15.4067 109.109 15.66C109.029 15.9 108.989 16.1867 108.989 16.52V17.1L106.869 17.02C106.895 15.74 107.189 14.8 107.749 14.2C108.309 13.5867 109.175 13.28 110.349 13.28C111.495 13.28 112.309 13.5933 112.789 14.22C113.269 14.8467 113.509 15.7533 113.509 16.94V22.22C113.509 22.58 113.515 22.9267 113.529 23.26C113.555 23.5933 113.582 23.9067 113.609 24.2C113.649 24.48 113.682 24.7467 113.709 25H111.749C111.709 24.7867 111.655 24.52 111.589 24.2C111.535 23.8667 111.495 23.5667 111.469 23.3C111.335 23.7533 111.075 24.18 110.689 24.58C110.315 24.9667 109.795 25.16 109.129 25.16ZM109.969 23.32C110.182 23.32 110.382 23.26 110.569 23.14C110.755 23.02 110.922 22.8867 111.069 22.74C111.215 22.58 111.315 22.4533 111.369 22.36V19.08C111.035 19.2667 110.722 19.4533 110.429 19.64C110.135 19.8267 109.875 20.0267 109.649 20.24C109.435 20.44 109.262 20.6733 109.129 20.94C109.009 21.1933 108.949 21.4867 108.949 21.82C108.949 22.2867 109.035 22.6533 109.209 22.92C109.382 23.1867 109.635 23.32 109.969 23.32ZM118.244 25.16C117.271 25.16 116.544 24.8067 116.064 24.1C115.584 23.38 115.344 22.1667 115.344 20.46V18.22C115.344 17.34 115.418 16.5267 115.564 15.78C115.711 15.02 115.984 14.4133 116.384 13.96C116.798 13.5067 117.398 13.28 118.184 13.28C118.571 13.28 118.924 13.3667 119.244 13.54C119.564 13.7133 119.851 13.9267 120.104 14.18V8.8H122.244V25H120.104V24.26C119.851 24.5267 119.571 24.7467 119.264 24.92C118.971 25.08 118.631 25.16 118.244 25.16ZM118.784 23.48C118.984 23.48 119.198 23.4467 119.424 23.38C119.651 23.3 119.878 23.1867 120.104 23.04V15.46C119.918 15.3267 119.711 15.2133 119.484 15.12C119.258 15.0133 119.011 14.96 118.744 14.96C118.251 14.96 117.918 15.2 117.744 15.68C117.571 16.1467 117.484 16.7133 117.484 17.38V20.64C117.484 21.1733 117.511 21.66 117.564 22.1C117.631 22.5267 117.758 22.8667 117.944 23.12C118.131 23.36 118.411 23.48 118.784 23.48ZM125.912 25L123.632 13.44H125.792L127.212 22.74L128.652 13.44H130.732L128.532 25H125.912ZM132.247 25V13.44H134.387V25H132.247ZM132.247 11.72V9.48H134.387V11.72H132.247ZM139.878 25.16C138.971 25.16 138.271 24.9867 137.778 24.64C137.284 24.28 136.938 23.76 136.738 23.08C136.551 22.3867 136.458 21.54 136.458 20.54V17.9C136.458 16.8733 136.558 16.02 136.758 15.34C136.958 14.66 137.304 14.1467 137.798 13.8C138.304 13.4533 138.998 13.28 139.878 13.28C140.851 13.28 141.564 13.48 142.018 13.88C142.484 14.28 142.791 14.86 142.938 15.62C143.084 16.3667 143.158 17.2667 143.158 18.32V19.26H138.598V21.58C138.598 22.0467 138.638 22.4267 138.718 22.72C138.811 23.0133 138.951 23.2333 139.138 23.38C139.338 23.5133 139.591 23.58 139.898 23.58C140.218 23.58 140.458 23.5067 140.618 23.36C140.791 23.2 140.904 22.98 140.958 22.7C141.024 22.4067 141.058 22.0667 141.058 21.68V20.98H143.138V21.42C143.138 22.58 142.891 23.4933 142.398 24.16C141.904 24.8267 141.064 25.16 139.878 25.16ZM138.598 18.1H141.058V17.06C141.058 16.58 141.031 16.18 140.978 15.86C140.924 15.5267 140.811 15.28 140.638 15.12C140.478 14.9467 140.218 14.86 139.858 14.86C139.511 14.86 139.244 14.94 139.058 15.1C138.884 15.26 138.764 15.5333 138.698 15.92C138.631 16.2933 138.598 16.8133 138.598 17.48V18.1ZM147.776 25.16C146.829 25.16 146.069 24.8667 145.496 24.28C144.922 23.68 144.596 22.8933 144.516 21.92L146.296 21.38C146.402 22.1133 146.582 22.6667 146.836 23.04C147.089 23.4 147.462 23.58 147.956 23.58C148.342 23.58 148.636 23.4733 148.836 23.26C149.036 23.0333 149.136 22.7333 149.136 22.36C149.136 22.0267 149.062 21.7267 148.916 21.46C148.769 21.1933 148.529 20.92 148.196 20.64L146.216 18.94C145.816 18.5933 145.476 18.2067 145.196 17.78C144.929 17.3533 144.796 16.8 144.796 16.12C144.796 15.5067 144.916 14.9933 145.156 14.58C145.409 14.1533 145.756 13.8333 146.196 13.62C146.649 13.3933 147.176 13.28 147.776 13.28C148.696 13.28 149.396 13.58 149.876 14.18C150.369 14.7667 150.649 15.48 150.716 16.32L149.276 16.86C149.222 16.46 149.142 16.1133 149.036 15.82C148.929 15.5133 148.782 15.28 148.596 15.12C148.409 14.9467 148.162 14.86 147.856 14.86C147.509 14.86 147.229 14.98 147.016 15.22C146.816 15.4467 146.716 15.72 146.716 16.04C146.716 16.24 146.756 16.44 146.836 16.64C146.929 16.8267 147.082 17.0133 147.296 17.2L149.336 19.08C149.616 19.3333 149.876 19.6067 150.116 19.9C150.369 20.1933 150.576 20.5267 150.736 20.9C150.896 21.2733 150.976 21.7067 150.976 22.2C150.976 22.8533 150.842 23.4 150.576 23.84C150.309 24.28 149.936 24.6133 149.456 24.84C148.976 25.0533 148.416 25.16 147.776 25.16ZM152.756 25V8.8H156.776C157.749 8.8 158.523 8.98 159.096 9.34C159.683 9.68667 160.109 10.1933 160.376 10.86C160.643 11.5267 160.776 12.3333 160.776 13.28C160.776 14.1333 160.623 14.8733 160.316 15.5C160.023 16.1267 159.583 16.6133 158.996 16.96C158.409 17.2933 157.676 17.46 156.796 17.46H155.016V25H152.756ZM155.016 15.84H156.056C156.709 15.84 157.223 15.7667 157.596 15.62C157.969 15.4733 158.236 15.22 158.396 14.86C158.556 14.4867 158.636 13.9667 158.636 13.3C158.636 12.5267 158.576 11.9333 158.456 11.52C158.349 11.1067 158.116 10.82 157.756 10.66C157.396 10.5 156.836 10.42 156.076 10.42H155.016V15.84ZM163.845 25.16C163.392 25.16 163.039 25.04 162.785 24.8C162.532 24.56 162.352 24.26 162.245 23.9C162.152 23.54 162.105 23.1733 162.105 22.8V13.44H164.245V22.16C164.245 22.5733 164.305 22.9 164.425 23.14C164.545 23.3667 164.792 23.48 165.165 23.48C165.405 23.48 165.652 23.4133 165.905 23.28C166.172 23.1333 166.425 22.96 166.665 22.76V13.44H168.805V25H166.665V23.86C166.292 24.22 165.865 24.5267 165.385 24.78C164.919 25.0333 164.405 25.16 163.845 25.16ZM170.994 25V13.44H173.134V14.58C173.521 14.22 173.947 13.9133 174.414 13.66C174.881 13.4067 175.394 13.28 175.954 13.28C176.421 13.28 176.774 13.4 177.014 13.64C177.267 13.88 177.441 14.18 177.534 14.54C177.641 14.9 177.694 15.2667 177.694 15.64V25H175.554V16.26C175.554 15.8467 175.494 15.5267 175.374 15.3C175.254 15.0733 175.007 14.96 174.634 14.96C174.394 14.96 174.141 15.0333 173.874 15.18C173.621 15.3133 173.374 15.48 173.134 15.68V25H170.994ZM182.863 25.16C182.263 25.16 181.776 25.0467 181.403 24.82C181.043 24.5933 180.776 24.2733 180.603 23.86C180.443 23.4467 180.363 22.96 180.363 22.4V14.86H179.143V13.44H180.363V10.06H182.503V13.44H184.363V14.86H182.503V22.26C182.503 22.7133 182.576 23.04 182.723 23.24C182.87 23.4267 183.15 23.52 183.563 23.52C183.67 23.52 183.79 23.5133 183.923 23.5C184.07 23.4867 184.21 23.4733 184.343 23.46V25.04C184.076 25.08 183.83 25.1067 183.603 25.12C183.376 25.1467 183.13 25.16 182.863 25.16ZM185.835 25V22.62H187.975V25H185.835ZM189.705 25V13.44H191.845V14.58C192.232 14.22 192.658 13.9133 193.125 13.66C193.592 13.4067 194.105 13.28 194.665 13.28C195.132 13.28 195.485 13.4 195.725 13.64C195.978 13.88 196.152 14.18 196.245 14.54C196.352 14.9 196.405 15.2667 196.405 15.64V25H194.265V16.26C194.265 15.8467 194.205 15.5267 194.085 15.3C193.965 15.0733 193.718 14.96 193.345 14.96C193.105 14.96 192.852 15.0333 192.585 15.18C192.332 15.3133 192.085 15.48 191.845 15.68V25H189.705ZM198.694 25V8.8H200.834V25H198.694Z" fill="#FCFCFC"></path><defs><clipPath id="clip0_1_73"><rect width="28" height="35" fill="white" transform="translate(2 -2)"></rect></clipPath></defs></svg>