<svg xmlns="http://www.w3.org/2000/svg" width="20" height="21" viewBox="0 0 20 21" fill="none"><path d="M10.7069 2.793C10.5194 2.60553 10.2651 2.50021 9.99992 2.50021C9.73475 2.50021 9.48045 2.60553 9.29292 2.793L2.29292 9.793C2.11076 9.9816 2.00997 10.2342 2.01224 10.4964C2.01452 10.7586 2.11969 11.0094 2.3051 11.1948C2.49051 11.3802 2.74132 11.4854 3.00352 11.4877C3.26571 11.49 3.51832 11.3892 3.70692 11.207L3.99992 10.914V17.5C3.99992 17.7652 4.10528 18.0196 4.29281 18.2071C4.48035 18.3946 4.7347 18.5 4.99992 18.5H6.99992C7.26514 18.5 7.51949 18.3946 7.70703 18.2071C7.89456 18.0196 7.99992 17.7652 7.99992 17.5V15.5C7.99992 15.2348 8.10528 14.9804 8.29281 14.7929C8.48035 14.6054 8.7347 14.5 8.99992 14.5H10.9999C11.2651 14.5 11.5195 14.6054 11.707 14.7929C11.8946 14.9804 11.9999 15.2348 11.9999 15.5V17.5C11.9999 17.7652 12.1053 18.0196 12.2928 18.2071C12.4803 18.3946 12.7347 18.5 12.9999 18.5H14.9999C15.2651 18.5 15.5195 18.3946 15.707 18.2071C15.8946 18.0196 15.9999 17.7652 15.9999 17.5V10.914L16.2929 11.207C16.4815 11.3892 16.7341 11.49 16.9963 11.4877C17.2585 11.4854 17.5093 11.3802 17.6947 11.1948C17.8801 11.0094 17.9853 10.7586 17.9876 10.4964C17.9899 10.2342 17.8891 9.9816 17.7069 9.793L10.7069 2.793Z" fill="#B18D4D"></path></svg>