<svg xmlns="http://www.w3.org/2000/svg" width="48" height="48" viewBox="0 0 48 48" fill="none"><path d="M40 23V12C40 10.1435 39.2625 8.36301 37.9497 7.05025C36.637 5.7375 34.8565 5 33 5C31.1435 5 29.363 5.7375 28.0503 7.05025C26.7375 8.36301 26 10.1435 26 12V13M40 23V29C40 31.1217 39.1571 33.1566 37.6569 34.6569C36.1566 36.1571 34.1217 37 32 37H16C13.8783 37 11.8434 36.1571 10.3431 34.6569C8.84285 33.1566 8 31.1217 8 29V23H40ZM43 23H5" stroke="#B18D4D" stroke-linecap="round"></path><path d="M31 37L35 43M17 37L13 43L17 37Z" stroke="#B18D4D" stroke-linecap="round" stroke-linejoin="round"></path></svg>