<svg xmlns="http://www.w3.org/2000/svg" width="48" height="48" viewBox="0 0 48 48" fill="none"><path d="M29 4H19C17.3431 4 16 5.34315 16 7V11C16 12.6569 17.3431 14 19 14H29C30.6569 14 32 12.6569 32 11V7C32 5.34315 30.6569 4 29 4Z" stroke="black" stroke-width="2" stroke-linecap="round" stroke-linejoin="round"></path><path d="M30 20H18C11.3726 20 6 25.3726 6 32C6 38.6274 11.3726 44 18 44H30C36.6274 44 42 38.6274 42 32C42 25.3726 36.6274 20 30 20Z" stroke="black" stroke-width="2" stroke-linecap="round" stroke-linejoin="round"></path><path d="M6 33C9.042 29.133 18 30 24 32C30 34 38 37 42 32" stroke="black" stroke-width="2" stroke-linecap="round" stroke-linejoin="round"></path><path d="M25 9C25 9.26522 24.8946 9.51957 24.7071 9.70711C24.5196 9.89464 24.2652 10 24 10C23.7348 10 23.4804 9.89464 23.2929 9.70711C23.1054 9.51957 23 9.26522 23 9C23 8.73478 23.1054 8.48043 23.2929 8.29289C23.4804 8.10536 23.7348 8 24 8C24.2652 8 24.5196 8.10536 24.7071 8.29289C24.8946 8.48043 25 8.73478 25 9Z" fill="black"></path></svg>