<svg xmlns="http://www.w3.org/2000/svg" width="48" height="48" viewBox="0 0 48 48" fill="none"><path d="M43.9118 17.728C43.9118 13.485 40.3758 13.485 37.9018 11.01C35.4268 8.535 35.4268 5 31.1838 5C28.3548 5 25.8808 8.182 25.8808 10.303C25.8808 12.424 26.5878 13.839 28.0018 15.253L15.2738 27.981C13.8598 26.567 12.4458 25.859 10.3238 25.859C8.20284 25.859 5.02084 28.334 5.02084 31.163C4.66684 35.759 8.91084 35.759 11.0308 37.88C13.1528 40.002 13.1528 44.244 17.7488 43.89C20.5768 43.89 23.0518 40.709 23.0518 38.587C23.0518 36.466 22.3448 35.052 20.9308 33.637L33.6588 20.911C35.0728 22.325 36.4868 23.032 38.6088 23.032C40.7288 23.032 43.9118 20.557 43.9118 17.729V17.728Z" stroke="black" stroke-width="2" stroke-linejoin="round"></path></svg>