<svg xmlns="http://www.w3.org/2000/svg" width="48" height="48" viewBox="0 0 48 48" fill="none"><path d="M42 35V39M8 12C8 11.2044 8.31607 10.4413 8.87868 9.87868C9.44129 9.31607 10.2044 9 11 9H37C37.7956 9 38.5587 9.31607 39.1213 9.87868C39.6839 10.4413 40 11.2044 40 12V23H8V12ZM6 35V39V35Z" stroke="black" stroke-width="2" stroke-linecap="round" stroke-linejoin="round"></path><path d="M29 18H19C18.2044 18 17.4413 18.3161 16.8787 18.8787C16.3161 19.4413 16 20.2044 16 21V23H32V21C32 20.2044 31.6839 19.4413 31.1213 18.8787C30.5587 18.3161 29.7956 18 29 18ZM4 26C4 25.2044 4.31607 24.4413 4.87868 23.8787C5.44129 23.3161 6.20435 23 7 23H41C41.7956 23 42.5587 23.3161 43.1213 23.8787C43.6839 24.4413 44 25.2044 44 26V35H4V26Z" stroke="black" stroke-width="2" stroke-linecap="round" stroke-linejoin="round"></path></svg>