<svg xmlns="http://www.w3.org/2000/svg" width="48" height="48" viewBox="0 0 48 48" fill="none"><path d="M10 32V11C10 9.14348 10.7375 7.36301 12.0503 6.05025C13.363 4.7375 15.1435 4 17 4C18.8565 4 20.637 4.7375 21.9497 6.05025C23.2625 7.36301 24 9.14348 24 11V37C24 37.9193 24.1811 38.8295 24.5328 39.6788C24.8846 40.5281 25.4002 41.2997 26.0503 41.9497C26.7003 42.5998 27.4719 43.1154 28.3212 43.4672C29.1705 43.8189 30.0807 44 31 44C31.9193 44 32.8295 43.8189 33.6788 43.4672C34.5281 43.1154 35.2997 42.5998 35.9497 41.9497C36.5998 41.2997 37.1154 40.5281 37.4672 39.6788C37.8189 38.8295 38 37.9193 38 37V16" stroke="black" stroke-width="2" stroke-linecap="round" stroke-linejoin="round"></path><path d="M41 16H35M32 16H35H32ZM44 16H41H44ZM41 16V4H35V16H41Z" stroke="black" stroke-width="2" stroke-linecap="round" stroke-linejoin="round"></path><path d="M7 32H13M16 32H13H16ZM4 32H7H4ZM7 32V44H13V32H7Z" stroke="black" stroke-width="2" stroke-linecap="round" stroke-linejoin="round"></path></svg>