<svg xmlns="http://www.w3.org/2000/svg" width="48" height="48" viewBox="0 0 48 48" fill="none"><path d="M34 13V6C34 5.46957 33.7893 4.96086 33.4142 4.58579C33.0391 4.21071 32.5304 4 32 4H8C7.46957 4 6.96086 4.21071 6.58579 4.58579C6.21071 4.96086 6 5.46957 6 6V34C6 34.5304 6.21071 35.0391 6.58579 35.4142C6.96086 35.7893 7.46957 36 8 36H23" stroke="#B18D4D" stroke-linecap="round" stroke-linejoin="bevel"></path><path d="M28 42C21 38 24.332 32.226 22.977 31C21.325 29.505 20.387 28.112 20 26C19.612 23.888 21.07 21.474 22.977 23C24.885 24.526 28 31 28 31L30 29L31 18C31 18 30 14 30 12C30 10 34 13 36 16C36 26.442 37.5 36 42 44" stroke="#B18D4D" stroke-linecap="round" stroke-linejoin="round"></path><path d="M6 22L12 11L17 18M25 17.4L21 11L13 27H20L25 17.4Z" stroke="#B18D4D" stroke-linecap="round" stroke-linejoin="round"></path></svg>