<svg xmlns="http://www.w3.org/2000/svg" width="306" height="32" viewBox="0 0 306 32" fill="none"><path d="M0 6.4C0 2.86538 2.86538 0 6.4 0H25.6C29.1346 0 32 2.86538 32 6.4V25.6C32 29.1346 29.1346 32 25.6 32H6.4C2.86538 32 0 29.1346 0 25.6V6.4Z" fill="#5BC5EA"></path><mask id="mask0_2_80" style="mask-type:alpha" maskUnits="userSpaceOnUse" x="0" y="0" width="32" height="32"><path d="M0 6.4C0 2.86538 2.86538 0 6.4 0H25.6C29.1346 0 32 2.86538 32 6.4V25.6C32 29.1346 29.1346 32 25.6 32H6.4C2.86538 32 0 29.1346 0 25.6V6.4Z" fill="#5BC5EA"></path></mask><g mask="url(#mask0_2_80)"><path d="M18.3206 9.27529C18.4125 8.72402 18.891 8.32001 19.4516 8.32001C19.8141 8.32001 20.1524 8.48941 20.3699 8.77729L21.1868 9.86001H23.7049C24.3187 9.86001 24.9132 10.1035 25.3482 10.5366L26.2134 11.4H28.92C29.5628 11.4 30.08 11.9174 30.08 12.555V13.71C30.08 15.8371 28.3497 17.56 26.2134 17.56H22.8639L22.6174 19.0278L17.2042 15.9478L18.3206 9.27529ZM23.8934 11.4C23.4681 11.4 23.1201 11.7446 23.1201 12.17C23.1201 12.5954 23.4681 12.94 23.8934 12.94C24.3187 12.94 24.6667 12.5954 24.6667 12.17C24.6667 11.7446 24.3187 11.4 23.8934 11.4ZM22.3468 20.6448V31.42C22.3468 32.2718 21.6556 32.96 20.8001 32.96H19.2535C18.398 32.96 17.7068 32.2718 17.7068 31.42V25.876C16.5033 26.4679 15.2322 26.8 13.8402 26.8C12.4482 26.8 11.1336 26.4679 9.97358 25.876V31.42C9.97358 32.2718 9.28242 32.96 8.42693 32.96H6.88028C6.02624 32.96 5.33363 32.2718 5.33363 31.42V20.3416C3.9431 19.8171 2.85126 18.6428 2.47408 17.1413L2.28655 16.3954C2.07934 15.5676 2.58321 14.7303 3.41192 14.4848C4.24035 14.3212 5.08037 14.8217 5.28772 15.6446L5.47525 16.3954C5.64731 17.0788 6.26597 17.5167 6.9755 17.5167H16.9238L22.3468 20.6448Z" fill="#010101"></path></g><path d="M46.36 23.912C44.76 22.312 43.96 20.312 43.96 17.912C43.96 15.512 44.776 13.504 46.408 11.888C48.024 10.288 50.064 9.488 52.528 9.488C54.208 9.488 55.72 9.888 57.064 10.688C58.424 11.488 59.448 12.576 60.136 13.952L57.352 14.984C56.872 14.12 56.208 13.448 55.36 12.968C54.512 12.488 53.568 12.248 52.528 12.248C50.96 12.248 49.632 12.792 48.544 13.88C47.472 14.952 46.936 16.288 46.936 17.888C46.936 19.52 47.448 20.872 48.472 21.944C49.496 23.016 50.768 23.552 52.288 23.552C53.472 23.552 54.552 23.2 55.528 22.496C56.472 21.808 57.104 20.896 57.424 19.76H52V17.144H60.664C60.696 17.56 60.712 17.824 60.712 17.936C60.68 20.336 59.872 22.328 58.288 23.912C56.704 25.512 54.728 26.312 52.36 26.312C49.96 26.312 47.96 25.512 46.36 23.912ZM73.5625 21.56H64.9945C65.1865 22.264 65.5705 22.84 66.1465 23.288C66.7225 23.72 67.3945 23.936 68.1625 23.936C69.2025 23.936 70.0425 23.552 70.6825 22.784L73.2025 23.528C72.7065 24.392 72.0105 25.072 71.1145 25.568C70.2345 26.064 69.2505 26.312 68.1625 26.312C66.5145 26.312 65.1225 25.768 63.9865 24.68C62.8665 23.608 62.3065 22.248 62.3065 20.6C62.3065 18.984 62.8505 17.632 63.9385 16.544C65.0105 15.44 66.3625 14.888 67.9945 14.888C69.5945 14.888 70.9305 15.44 72.0025 16.544C73.0905 17.632 73.6345 18.984 73.6345 20.6C73.6345 20.936 73.6105 21.256 73.5625 21.56ZM65.0185 19.544H70.9705C70.7625 18.872 70.3865 18.328 69.8425 17.912C69.2985 17.48 68.6665 17.264 67.9465 17.264C67.2585 17.264 66.6425 17.48 66.0985 17.912C65.5705 18.328 65.2105 18.872 65.0185 19.544ZM74.4588 17.456V15.2H75.9948V13.088H78.5868V15.2H81.3708V17.456H78.5868V22.208C78.5868 22.592 78.7148 22.912 78.9708 23.168C79.2268 23.408 79.5388 23.528 79.9068 23.528H81.3708V26H79.6908C78.6668 26 77.7868 25.672 77.0508 25.016C76.3468 24.36 75.9948 23.552 75.9948 22.592V17.456H74.4588ZM93.9531 21.56H85.3851C85.5771 22.264 85.9611 22.84 86.5371 23.288C87.1131 23.72 87.7851 23.936 88.5531 23.936C89.5931 23.936 90.4331 23.552 91.0731 22.784L93.5931 23.528C93.0971 24.392 92.4011 25.072 91.5051 25.568C90.6251 26.064 89.6411 26.312 88.5531 26.312C86.9051 26.312 85.5131 25.768 84.3771 24.68C83.2571 23.608 82.6971 22.248 82.6971 20.6C82.6971 18.984 83.2411 17.632 84.3291 16.544C85.4011 15.44 86.7531 14.888 88.3851 14.888C89.9851 14.888 91.3211 15.44 92.3931 16.544C93.4811 17.632 94.0251 18.984 94.0251 20.6C94.0251 20.936 94.0011 21.256 93.9531 21.56ZM85.4091 19.544H91.3611C91.1531 18.872 90.7771 18.328 90.2331 17.912C89.6891 17.48 89.0571 17.264 88.3371 17.264C87.6491 17.264 87.0331 17.48 86.4891 17.912C85.9611 18.328 85.6011 18.872 85.4091 19.544ZM103.777 17.792L101.353 18.2C101.161 17.48 100.529 17.12 99.4574 17.12C99.0094 17.12 98.6414 17.208 98.3534 17.384C98.0814 17.544 97.9454 17.768 97.9454 18.056C97.9454 18.44 98.2654 18.736 98.9054 18.944L101.113 19.688C102.105 20.04 102.825 20.472 103.273 20.984C103.721 21.496 103.945 22.144 103.945 22.928C103.945 24 103.553 24.832 102.769 25.424C101.985 26.016 100.953 26.312 99.6734 26.312C98.3934 26.312 97.3614 26.032 96.5774 25.472C95.7934 24.912 95.3294 24.136 95.1854 23.144L97.6094 22.784C97.8334 23.632 98.5454 24.056 99.7454 24.056C100.257 24.056 100.673 23.968 100.993 23.792C101.313 23.6 101.473 23.344 101.473 23.024C101.473 22.592 101.073 22.24 100.273 21.968L98.0654 21.272C97.1534 20.968 96.4894 20.584 96.0734 20.12C95.6734 19.64 95.4734 19.016 95.4734 18.248C95.4734 17.16 95.8494 16.328 96.6014 15.752C97.3534 15.176 98.3694 14.888 99.6494 14.888C100.801 14.888 101.745 15.152 102.481 15.68C103.217 16.192 103.649 16.896 103.777 17.792ZM104.81 17.456V15.2H106.346V13.088H108.938V15.2H111.722V17.456H108.938V22.208C108.938 22.592 109.066 22.912 109.322 23.168C109.578 23.408 109.89 23.528 110.258 23.528H111.722V26H110.042C109.018 26 108.138 25.672 107.402 25.016C106.698 24.36 106.346 23.552 106.346 22.592V17.456H104.81ZM121.128 26H118.776L111.936 9.8H114.936L119.952 21.92L124.968 9.8H127.968L121.128 26ZM132.66 14.888C134.292 14.888 135.652 15.432 136.74 16.52C137.828 17.608 138.372 18.968 138.372 20.6C138.372 22.232 137.828 23.592 136.74 24.68C135.652 25.768 134.292 26.312 132.66 26.312C131.012 26.312 129.644 25.768 128.556 24.68C127.468 23.592 126.924 22.232 126.924 20.6C126.924 18.968 127.468 17.608 128.556 16.52C129.644 15.432 131.012 14.888 132.66 14.888ZM132.66 23.72C133.508 23.72 134.22 23.424 134.796 22.832C135.372 22.224 135.66 21.48 135.66 20.6C135.66 19.72 135.372 18.984 134.796 18.392C134.22 17.784 133.508 17.48 132.66 17.48C131.812 17.48 131.084 17.784 130.476 18.392C129.9 18.984 129.612 19.72 129.612 20.6C129.612 21.48 129.9 22.224 130.476 22.832C131.068 23.424 131.796 23.72 132.66 23.72ZM145.597 14.888C147.229 14.888 148.589 15.432 149.677 16.52C150.765 17.608 151.309 18.968 151.309 20.6C151.309 22.232 150.765 23.592 149.677 24.68C148.589 25.768 147.229 26.312 145.597 26.312C143.949 26.312 142.581 25.768 141.493 24.68C140.405 23.592 139.861 22.232 139.861 20.6C139.861 18.968 140.405 17.608 141.493 16.52C142.581 15.432 143.949 14.888 145.597 14.888ZM145.597 23.72C146.445 23.72 147.157 23.424 147.733 22.832C148.309 22.224 148.597 21.48 148.597 20.6C148.597 19.72 148.309 18.984 147.733 18.392C147.157 17.784 146.445 17.48 145.597 17.48C144.749 17.48 144.021 17.784 143.413 18.392C142.837 18.984 142.549 19.72 142.549 20.6C142.549 21.48 142.837 22.224 143.413 22.832C144.005 23.424 144.733 23.72 145.597 23.72ZM155.799 15.2V16.52C156.599 15.432 157.679 14.888 159.039 14.888C159.215 14.888 159.327 14.896 159.375 14.912V17.768C159.007 17.624 158.647 17.552 158.295 17.552C157.591 17.552 156.999 17.792 156.519 18.272C156.039 18.752 155.799 19.344 155.799 20.048V26H153.207V15.2H155.799ZM164.039 26H161.183V9.8H164.039L169.991 20.336L175.943 9.8H178.823V26H175.943V15.248L170.951 24.128H169.055L164.039 15.248V26ZM184.017 26H181.425V15.2H184.017V26ZM181.089 11.768C181.089 11.288 181.241 10.896 181.545 10.592C181.865 10.272 182.257 10.112 182.721 10.112C183.185 10.112 183.577 10.272 183.897 10.592C184.217 10.896 184.377 11.288 184.377 11.768C184.377 12.232 184.217 12.624 183.897 12.944C183.577 13.248 183.185 13.4 182.721 13.4C182.257 13.4 181.865 13.248 181.545 12.944C181.241 12.624 181.089 12.232 181.089 11.768ZM186.444 15.2H189.036V27.968C189.036 28.96 188.676 29.776 187.956 30.416C187.252 31.072 186.38 31.4 185.34 31.4H184.26V28.928H185.124C185.492 28.928 185.804 28.8 186.06 28.544C186.316 28.304 186.444 28 186.444 27.632V15.2ZM186.108 11.768C186.108 11.288 186.26 10.896 186.564 10.592C186.884 10.272 187.276 10.112 187.74 10.112C188.204 10.112 188.596 10.272 188.916 10.592C189.236 10.896 189.396 11.288 189.396 11.768C189.396 12.232 189.236 12.624 188.916 12.944C188.596 13.248 188.204 13.4 187.74 13.4C187.276 13.4 186.884 13.248 186.564 12.944C186.26 12.624 186.108 12.232 186.108 11.768ZM191.34 26V15.2H193.932V16.52C194.732 15.432 195.812 14.888 197.172 14.888C198.404 14.888 199.42 15.288 200.22 16.088C201.036 16.872 201.444 17.872 201.444 19.088V26H198.852V19.832C198.852 19.128 198.62 18.544 198.156 18.08C197.692 17.6 197.108 17.36 196.404 17.36C195.716 17.36 195.132 17.6 194.652 18.08C194.172 18.56 193.932 19.144 193.932 19.832V26H191.34ZM206.906 26H204.05V9.8H206.906V16.496H215.234V9.8H218.09V26H215.234V19.136H206.906V26ZM220.707 22.112V15.2H223.299V21.368C223.299 22.072 223.531 22.664 223.995 23.144C224.475 23.608 225.059 23.84 225.747 23.84C226.451 23.84 227.035 23.608 227.499 23.144C227.979 22.664 228.219 22.072 228.219 21.368V15.2H230.811V26H228.219V24.68C227.419 25.768 226.339 26.312 224.979 26.312C223.779 26.312 222.763 25.912 221.931 25.112C221.115 24.296 220.707 23.296 220.707 22.112ZM235.697 26H233.105V15.2H235.697V26ZM232.769 11.768C232.769 11.288 232.921 10.896 233.225 10.592C233.545 10.272 233.937 10.112 234.401 10.112C234.865 10.112 235.257 10.272 235.577 10.592C235.897 10.896 236.057 11.288 236.057 11.768C236.057 12.232 235.897 12.624 235.577 12.944C235.257 13.248 234.865 13.4 234.401 13.4C233.937 13.4 233.545 13.248 233.225 12.944C232.921 12.624 232.769 12.232 232.769 11.768ZM246.02 17.792L243.596 18.2C243.404 17.48 242.772 17.12 241.7 17.12C241.252 17.12 240.884 17.208 240.596 17.384C240.324 17.544 240.188 17.768 240.188 18.056C240.188 18.44 240.508 18.736 241.148 18.944L243.356 19.688C244.348 20.04 245.068 20.472 245.516 20.984C245.964 21.496 246.188 22.144 246.188 22.928C246.188 24 245.796 24.832 245.012 25.424C244.228 26.016 243.196 26.312 241.916 26.312C240.636 26.312 239.604 26.032 238.82 25.472C238.036 24.912 237.572 24.136 237.428 23.144L239.852 22.784C240.076 23.632 240.788 24.056 241.988 24.056C242.5 24.056 242.916 23.968 243.236 23.792C243.556 23.6 243.716 23.344 243.716 23.024C243.716 22.592 243.316 22.24 242.516 21.968L240.308 21.272C239.396 20.968 238.732 20.584 238.316 20.12C237.916 19.64 237.716 19.016 237.716 18.248C237.716 17.16 238.092 16.328 238.844 15.752C239.596 15.176 240.612 14.888 241.892 14.888C243.044 14.888 243.988 15.152 244.724 15.68C245.46 16.192 245.892 16.896 246.02 17.792ZM247.557 20.6C247.557 18.984 248.061 17.632 249.069 16.544C250.077 15.44 251.333 14.888 252.837 14.888C254.085 14.888 255.173 15.28 256.101 16.064V8.6H258.669V26H256.101V25.136C255.173 25.92 254.085 26.312 252.837 26.312C251.333 26.312 250.077 25.768 249.069 24.68C248.061 23.592 247.557 22.232 247.557 20.6ZM256.053 20.6C256.053 19.736 255.773 19 255.213 18.392C254.653 17.784 253.965 17.48 253.148 17.48C252.333 17.48 251.645 17.784 251.085 18.392C250.525 19 250.245 19.736 250.245 20.6C250.245 21.48 250.525 22.224 251.085 22.832C251.629 23.424 252.317 23.72 253.148 23.72C253.981 23.72 254.669 23.424 255.213 22.832C255.773 22.224 256.053 21.48 256.053 20.6ZM263.564 26H260.972V15.2H263.564V26ZM260.636 11.768C260.636 11.288 260.788 10.896 261.092 10.592C261.412 10.272 261.804 10.112 262.268 10.112C262.732 10.112 263.124 10.272 263.444 10.592C263.764 10.896 263.924 11.288 263.924 11.768C263.924 12.232 263.764 12.624 263.444 12.944C263.124 13.248 262.732 13.4 262.268 13.4C261.804 13.4 261.412 13.248 261.092 12.944C260.788 12.624 260.636 12.232 260.636 11.768ZM276.719 21.56H268.151C268.343 22.264 268.727 22.84 269.303 23.288C269.879 23.72 270.551 23.936 271.319 23.936C272.359 23.936 273.199 23.552 273.839 22.784L276.359 23.528C275.863 24.392 275.167 25.072 274.271 25.568C273.391 26.064 272.407 26.312 271.319 26.312C269.671 26.312 268.279 25.768 267.143 24.68C266.023 23.608 265.463 22.248 265.463 20.6C265.463 18.984 266.007 17.632 267.095 16.544C268.167 15.44 269.519 14.888 271.151 14.888C272.751 14.888 274.087 15.44 275.159 16.544C276.247 17.632 276.791 18.984 276.791 20.6C276.791 20.936 276.767 21.256 276.719 21.56ZM268.175 19.544H274.127C273.919 18.872 273.543 18.328 272.999 17.912C272.455 17.48 271.823 17.264 271.103 17.264C270.415 17.264 269.799 17.48 269.255 17.912C268.727 18.328 268.367 18.872 268.175 19.544ZM281.119 15.2V16.52C281.919 15.432 282.999 14.888 284.359 14.888C284.535 14.888 284.647 14.896 284.695 14.912V17.768C284.327 17.624 283.967 17.552 283.615 17.552C282.911 17.552 282.319 17.792 281.839 18.272C281.359 18.752 281.119 19.344 281.119 20.048V26H278.527V15.2H281.119ZM284.857 25.856C284.553 25.536 284.401 25.144 284.401 24.68C284.401 24.216 284.553 23.832 284.857 23.528C285.161 23.208 285.545 23.048 286.009 23.048C286.473 23.048 286.857 23.208 287.161 23.528C287.481 23.832 287.641 24.216 287.641 24.68C287.641 25.144 287.481 25.536 287.161 25.856C286.857 26.16 286.473 26.312 286.009 26.312C285.545 26.312 285.161 26.16 284.857 25.856ZM289.566 26V15.2H292.158V16.52C292.958 15.432 294.038 14.888 295.398 14.888C296.63 14.888 297.646 15.288 298.446 16.088C299.262 16.872 299.67 17.872 299.67 19.088V26H297.078V19.832C297.078 19.128 296.846 18.544 296.382 18.08C295.918 17.6 295.334 17.36 294.63 17.36C293.942 17.36 293.358 17.6 292.878 18.08C292.398 18.56 292.158 19.144 292.158 19.832V26H289.566ZM304.557 26H301.965V8.6H304.557V26Z" fill="#010101"></path></svg>